<svg xmlns="http://www.w3.org/2000/svg" xmlns:xlink="http://www.w3.org/1999/xlink" viewBox="0 0 25 28" class="design-iconfont">
  <defs>
    <path id="x7pirm4ft__awapjm8s7a" d="M0 0L24.9396062 0 24.9396062 28 0 28z"/>
  </defs>
  <g fill="none" fill-rule="evenodd">
    <path d="M16.4092234,24.1291831 L12.5469517,18.0669663 L14.9046534,14.0663115 L19.9770852,22.0613939 L16.4092234,24.1291831 Z M15.6249373,12.8295127 L17.6809639,9.34018334 L23.2235523,17.9728658 L23.2263199,19.6296572 L23.2083301,8.22931316 C23.1951837,7.95047126 23.0471138,7.69550043 22.8111707,7.54500883 L12.8323668,1.80522464 C12.5988453,1.69071264 12.3027055,1.69209647 12.069876,1.80903017 C12.0383939,1.82494423 12.0089875,1.84189615 11.9806189,1.86057787 L11.9456772,1.88271916 L2.25989948,7.49553688 L2.22219009,7.51283477 C2.17375601,7.5346301 2.12497598,7.56334459 2.0789636,7.59586462 C1.89526007,7.7276745 1.77348296,7.92244868 1.73404378,8.14074799 C1.7281625,8.17395993 1.72366505,8.20751783 1.7215893,8.24176764 L1.73681144,17.5317698 L6.89953819,9.53011411 C7.54959271,8.46906185 8.96559758,8.12725564 10.2805828,8.14593736 L11.8232082,8.18641441 L2.73213174,22.7664557 L3.80356274,23.3832983 L13.0039618,8.20129059 L17.0703486,8.18641441 L7.89416658,23.7517432 L11.718037,25.9513423 L12.1750472,26.2139242 C12.3684375,26.2924566 12.5960777,26.2962621 12.7908519,26.2260327 L22.9101146,20.3617037 L20.9751732,21.4829526 L15.6249373,12.8295127 Z" fill="#2D374B"/>
    <path fill="#28A0F0" d="M12.5467787 18.0672777L16.4090505 24.1291485 19.9769122 22.0613593 14.9044804 14.0662769z"/>
    <path d="M23.2262507,19.6297956 L23.223829,17.9730042 L17.6808948,9.34032172 L15.6248681,12.8296511 L20.9754499,21.483091 L22.9100454,20.3621881 C23.0996302,20.2078909 23.2148341,19.9816346 23.2265967,19.7377344 L23.2262507,19.6297956 Z" fill="#28A0F0"/>
    <path d="M0,21.1921406 L2.73202795,22.7662481 L11.8234503,8.18655279 L10.280479,8.14572978 C8.96583975,8.12739403 7.54948892,8.46920023 6.89943441,9.52990654 L1.73670765,17.5319081 L0,20.2002799 L0,21.1921406 Z" fill="#FFF"/>
    <path fill="#FFF" d="M17.0704524 8.18655279L13.0037196 8.20142897 3.80366653 23.3834367 7.01934334 25.2346563 7.89392441 23.7515357z"/>
    <g transform="translate(.000138)">
      <mask id="x7pirm4ft__4qflfedejb" fill="#fff">
        <use xlink:href="#x7pirm4ft__awapjm8s7a"/>
      </mask>
      <path d="M24.9397446,8.16555316 C24.9058408,7.31518913 24.4453711,6.53678431 23.7240493,6.08357972 L13.6144734,0.269760579 C12.9011086,-0.0896894712 12.0099215,-0.0900354289 11.294827,0.269414621 C11.2104133,0.311967418 1.46374703,5.96491623 1.46374703,5.96491623 C1.32882352,6.02961032 1.19874343,6.10641293 1.07662036,6.19394023 C0.432793082,6.6554478 0.0404770509,7.37261811 0,8.16036379 L0,20.2007296 L1.73670765,17.5320119 L1.72148551,8.24166385 C1.72356126,8.20776 1.72805871,8.1742021 1.73393999,8.14133612 C1.77303321,7.92269085 1.89515628,7.72791667 2.07885982,7.59610679 C2.12487219,7.5632408 12.0379441,1.82484044 12.0694263,1.80892638 C12.3026018,1.69199268 12.5987416,1.69060885 12.831917,1.80546681 L22.8107209,7.545251 C23.0466641,7.69539665 23.194734,7.95036747 23.2078804,8.22920938 L23.2078804,19.7374923 C23.1957719,19.9813924 23.0992497,20.2076488 22.9096648,20.3615999 L20.9750694,21.4828489 L19.9766355,22.0612901 L16.4087737,24.1290793 L12.7907481,26.2259289 C12.5956279,26.2961583 12.3676418,26.2923528 12.1745974,26.2138204 L7.89371683,23.7516394 L7.01913577,25.2347601 L10.8665313,27.4495813 C10.9934978,27.5218865 11.1069719,27.5862346 11.2000346,27.6384742 C11.343953,27.7190823 11.442205,27.7730517 11.4768007,27.7900037 C11.7504533,27.9228514 12.1438072,28 12.4980679,28 C12.8232681,28 13.1401654,27.9404953 13.4401107,27.8228697 L23.9496137,21.7367818 C24.5529639,21.269393 24.9079165,20.5643312 24.9397446,19.8011485 L24.9397446,8.16555316 Z" fill="#96BEDC" mask="url(#x7pirm4ft__4qflfedejb)"/>
    </g>
  </g>
</svg>
